<?xml version="1.0" encoding="UTF-8" standalone="no"?>
<!-- Generator: Adobe Illustrator 16.0.0, SVG Export Plug-In . SVG Version: 6.00 Build 0)  -->

<svg
   xmlns:dc="http://purl.org/dc/elements/1.1/"
   xmlns:cc="http://creativecommons.org/ns#"
   xmlns:rdf="http://www.w3.org/1999/02/22-rdf-syntax-ns#"
   xmlns:svg="http://www.w3.org/2000/svg"
   xmlns="http://www.w3.org/2000/svg"
   xmlns:sodipodi="http://sodipodi.sourceforge.net/DTD/sodipodi-0.dtd"
   xmlns:inkscape="http://www.inkscape.org/namespaces/inkscape"
   version="1.1"
   id="Livello_1"
   x="0px"
   y="0px"
   width="600"
   height="600"
   viewBox="0 0 599.99999 600"
   enable-background="new 0 0 960 560"
   xml:space="preserve"
   inkscape:version="0.92.4 (unknown)"
   sodipodi:docname="dante.svg"
   inkscape:export-filename="/home/giacomo/Documents/logo/dante.png"
   inkscape:export-xdpi="26.167608"
   inkscape:export-ydpi="26.167608"><metadata
   id="metadata39"><rdf:RDF><cc:Work
       rdf:about=""><dc:format>image/svg+xml</dc:format><dc:type
         rdf:resource="http://purl.org/dc/dcmitype/StillImage" /><dc:title></dc:title></cc:Work></rdf:RDF></metadata><defs
   id="defs37" /><sodipodi:namedview
   pagecolor="#ffffff"
   bordercolor="#666666"
   borderopacity="1"
   objecttolerance="10"
   gridtolerance="10"
   guidetolerance="10"
   inkscape:pageopacity="0"
   inkscape:pageshadow="2"
   inkscape:window-width="1920"
   inkscape:window-height="1016"
   id="namedview35"
   showgrid="false"
   inkscape:zoom="0.70710678"
   inkscape:cx="-184.92207"
   inkscape:cy="426.90155"
   inkscape:window-x="0"
   inkscape:window-y="27"
   inkscape:window-maximized="1"
   inkscape:current-layer="Livello_1"
   fit-margin-top="0"
   fit-margin-left="0"
   fit-margin-right="0"
   fit-margin-bottom="0"
   showguides="false" /><text
   xml:space="preserve"
   style="font-style:normal;font-variant:normal;font-weight:normal;font-stretch:normal;font-size:40px;line-height:125%;font-family:'Deansgate Condensed';-inkscape-font-specification:'Deansgate Condensed, ';letter-spacing:0px;word-spacing:0px;fill:#000000;fill-opacity:1;stroke:none;stroke-width:1px;stroke-linecap:butt;stroke-linejoin:miter;stroke-opacity:1"
   x="98.239998"
   y="448.07401"
   id="text94499"><tspan
     sodipodi:role="line"
     id="tspan94497"
     x="98.239998"
     y="484.27402" /><tspan
     sodipodi:role="line"
     x="98.239998"
     y="534.27399"
     id="tspan94501" /></text>

<path
   d="M 5.1676366,299.98571 C 5.1676366,137.16784 137.18213,5.1647761 300.01143,5.1647761 c 162.82931,0 294.82093,132.0030639 294.82093,294.8209339 0,162.84644 -131.99162,294.84951 -294.82093,294.84951 -162.8293,0 -294.8437934,-132.00307 -294.8437934,-294.84951 z"
   id="path25"
   inkscape:export-filename="/home/giacomo/dante.png"
   inkscape:export-xdpi="100"
   inkscape:export-ydpi="100"
   style="fill:#139fd5;fill-opacity:1;stroke-width:5.71491289"
   inkscape:connector-curvature="0" /><g
   id="g3794"
   transform="matrix(12.987839,-2.6548055,1.6106323,7.879535,-2264.9541,354.02801)"
   style="fill:#ffffff"
   inkscape:export-filename="/home/giacomo/dante.png"
   inkscape:export-xdpi="100"
   inkscape:export-ydpi="100"><path
     id="path3768"
     d="m 184.88958,85.433715 c -2.0255,-0.462318 -3.88941,-0.859343 -5.23152,-1.114344 -0.80132,-0.15225 -1.45693,-0.29832 -1.45692,-0.324599 1e-5,-0.02628 0.20411,-0.128945 0.45357,-0.228145 0.79385,-0.315701 2.57698,-1.295007 3.171,-1.741537 0.80207,-0.60293 2.27679,-2.086379 4.04423,-4.068159 1.4354,-1.609477 2.78183,-2.944723 2.9694,-2.944723 0.0479,0 0.0411,0.05546 -0.0152,0.123247 -0.0563,0.06779 -0.31347,0.616057 -0.57158,1.21838 -0.65348,1.524953 -1.19882,2.590113 -1.7838,3.484112 -1.01838,1.556319 -1.75301,2.15457 -3.46661,2.823029 -0.56494,0.22038 -1.18779,0.482188 -1.38412,0.581795 -0.35815,0.181715 -0.72352,0.611194 -0.61353,0.721185 0.0323,0.03233 0.62943,-0.05361 1.32689,-0.190984 3.06761,-0.604193 4.64099,-0.815784 6.86839,-0.923676 1.93012,-0.09349 3.07082,-0.257872 4.33826,-0.625162 0.82821,-0.240006 2.30618,-0.90018 2.91416,-1.301687 l 0.33446,-0.220873 -0.4139,0.498549 c -1.24942,1.504928 -3.1805,2.838691 -5.23469,3.615512 -1.90875,0.721821 -4.61934,0.989941 -6.24853,0.61808 z"
     style="fill:#ffffff;stroke-width:0.09555919"
     inkscape:connector-curvature="0" /><path
     id="path3764"
     d="m 188.39965,80.343863 c 0.9479,-1.407434 1.57302,-2.879733 2.8914,-6.809852 1.30793,-3.898933 1.79336,-5.022416 2.69506,-6.23738 0.40384,-0.544137 0.47061,-0.600704 0.42395,-0.359175 -0.24156,1.250447 -0.5491,3.236116 -0.6349,4.099358 -0.33277,3.347883 -1.2496,5.458133 -3.31257,7.624482 -0.55686,0.584758 -0.69949,0.794222 -0.69949,1.027262 0,0.486422 0.26575,0.373344 1.52895,-0.650578 1.34439,-1.089733 4.77837,-3.287081 7.45362,-4.769453 1.81915,-1.008 2.0154,-1.153337 3.26737,-2.419607 l 1.1173,-1.130056 -0.28777,0.641615 c -1.46662,3.270081 -3.78309,5.734929 -6.96453,7.410647 -1.24598,0.656279 -2.5698,1.106912 -4.29931,1.463509 -1.32544,0.273283 -2.89554,0.650028 -3.55262,0.852451 -0.10043,0.03094 0.039,-0.246546 0.37354,-0.743223 z"
     style="fill:#ffffff;stroke-width:0.09555919"
     inkscape:connector-curvature="0" /><path
     id="path3760"
     d="m 195.59516,72.933795 c 0.58902,-1.506414 0.75981,-2.625796 0.95134,-6.235237 0.18333,-3.454765 0.44271,-5.801975 0.82595,-7.47409 l 0.15957,-0.696221 0.41106,2.195286 c 0.50939,2.720398 0.65485,4.086649 0.58127,5.459611 -0.0922,1.720063 -0.38147,2.692902 -1.25887,4.233362 -0.24695,0.433569 -0.30161,0.814519 -0.15101,1.052456 0.21137,0.333962 0.79746,-0.334564 2.41818,-2.758322 1.51028,-2.258612 2.55103,-3.612271 3.63083,-4.722484 0.51815,-0.532744 1.19577,-1.337939 1.50582,-1.789322 0.53185,-0.774279 1.52999,-2.636095 1.52999,-2.853867 0,-0.05501 0.0369,-0.100026 0.0821,-0.100026 0.0451,0 0.0643,0.354763 0.0426,0.788363 -0.19215,3.842538 -2.10922,7.072833 -6.14491,10.354284 -1.1516,0.93638 -4.74495,3.47791 -4.91724,3.47791 -0.017,0 0.13298,-0.419266 0.33334,-0.931703 z"
     style="fill:#ffffff;stroke-width:0.09555919"
     inkscape:connector-curvature="0" /><path
     id="path3756"
     d="m 200.63173,62.661182 c -0.0744,-1.236014 -0.45196,-2.82313 -1.26738,-5.327425 -0.72705,-2.232897 -1.13744,-3.977505 -1.47248,-6.259694 -0.31733,-2.161535 -0.3448,-2.163376 0.98276,0.06589 1.24067,2.083352 1.63331,2.905858 2.01351,4.217832 0.46046,1.588964 0.5727,3.63747 0.28006,5.111714 -0.14575,0.734233 -0.1459,0.806352 -0.002,0.950209 0.14386,0.143857 0.1737,0.138732 0.39327,-0.06754 0.33773,-0.317281 0.58257,-1.143405 0.90903,-3.067127 0.3193,-1.881523 0.54807,-2.606052 1.95989,-6.207037 0.89922,-2.293531 1.18458,-3.319817 1.2058,-4.336571 0.008,-0.386728 0.01,-0.388597 0.0957,-0.106931 0.24072,0.788522 0.39395,2.616393 0.34045,4.061265 -0.0855,2.309394 -0.55174,4.196822 -1.54616,6.259128 -0.58042,1.203743 -1.05008,1.924841 -2.268,3.482205 -0.47513,0.60755 -1.01393,1.330395 -1.19734,1.606322 -0.18341,0.275927 -0.34257,0.501686 -0.35368,0.501686 -0.0111,0 -0.0441,-0.397766 -0.0734,-0.883923 z"
     style="fill:#ffffff;stroke-width:0.09555919"
     inkscape:connector-curvature="0" /><path
     id="path3752"
     d="m 201.89582,52.364679 c -0.37614,-1.001963 -1.35123,-2.708958 -2.37451,-4.156825 -3.06468,-4.336317 -3.59917,-5.259858 -4.10836,-7.09894 l -0.19283,-0.696472 2.06808,2.013031 c 1.13745,1.107167 2.21386,2.216111 2.39202,2.464318 0.66095,0.920781 1.16516,2.137014 1.60456,3.870448 0.26628,1.050468 0.35081,1.21546 0.62268,1.21546 0.33961,0 0.35774,-0.272663 0.16204,-2.43676 l -0.19011,-2.102302 0.21427,-3.558919 c 0.1977,-3.283541 0.21194,-4.941737 0.0466,-5.423645 l -0.0656,-0.191118 0.16239,0.191118 c 0.30491,0.358876 1.27729,2.482896 1.51416,3.307492 0.71844,2.501034 0.58645,5.112051 -0.41745,8.257872 -0.41735,1.307809 -1.14535,3.875367 -1.27268,4.488581 -0.032,0.154014 -0.0641,0.126186 -0.16524,-0.143339 z"
     style="fill:#ffffff;stroke-width:0.09555919"
     inkscape:connector-curvature="0" /><path
     id="path3748"
     d="m 199.69033,42.152574 c -0.24252,-0.301066 -1.25306,-1.233331 -2.24564,-2.071701 -2.8761,-2.429255 -4.06643,-3.66081 -4.99039,-5.163252 -0.26092,-0.424285 -0.78001,-1.643423 -0.78001,-1.831948 0,-0.03699 0.33326,0.257563 0.74058,0.654551 0.91886,0.895546 1.39063,1.275041 2.84289,2.286797 1.74853,1.218166 2.80564,2.378254 3.6675,4.02477 0.38027,0.726491 0.6013,0.87149 0.81336,0.533592 0.0844,-0.134426 -0.006,-0.494877 -0.44343,-1.767845 -0.30218,-0.879445 -0.80667,-2.661876 -1.1211,-3.960958 -0.64891,-2.680961 -0.90037,-3.462655 -1.4031,-4.36162 l -0.35381,-0.632666 0.61478,0.487645 c 1.3822,1.096365 2.49972,2.833005 2.97488,4.622967 0.20465,0.770911 0.21573,0.988556 0.21781,4.27608 0.001,1.905105 -0.0193,3.460937 -0.0456,3.457404 -0.0263,-0.0035 -0.24621,-0.252751 -0.48873,-0.553816 z"
     style="fill:#ffffff;stroke-width:0.09555919"
     inkscape:connector-curvature="0" /><path
     id="path3740"
     d="m 194.97108,33.482145 c -0.68325,-0.554597 -1.42896,-1.187834 -1.65714,-1.407195 -0.50158,-0.482197 -1.65568,-2.013016 -2.93026,-3.886747 -0.5184,-0.762085 -1.15413,-1.63317 -1.41273,-1.935746 l -0.47019,-0.550136 0.7984,0.341172 c 2.55793,1.093055 4.50997,2.703137 5.45294,4.497691 0.50718,0.965231 1.01255,2.23256 1.30041,3.261121 0.10664,0.381043 0.18646,0.691768 0.17737,0.690501 -0.009,-0.0013 -0.57555,-0.456065 -1.2588,-1.010661 z"
     style="fill:#ffffff;stroke-width:0.09555919"
     inkscape:connector-curvature="0" /></g></svg>